<?xml version="1.0" encoding="UTF-8"?>
<svg id="Layer_1" data-name="Layer 1" xmlns="http://www.w3.org/2000/svg" viewBox="0 0 1920 1080">
  <defs>
    <style>
      .cls-1 {
        stroke: #000;
        stroke-miterlimit: 10;
      }

      .cls-1, .cls-2 {
        fill: #2b2216;
      }
    </style>
  </defs>
  <g>
    <path class="cls-2" d="M895.69872,822.63027v-40.74671h3.3124v22.89207l14.13588-22.89207h3.25403l-10.28702,17.25382,12.75963,23.49289h-3.25403l-11.4883-21.13586-5.10852,7.79502v13.34084h-3.32408Z"/>
    <path class="cls-2" d="M932.39141,822.63027l-11.79155-40.74671h3.25403l10.11204,35.97105,9.44722-35.97105h3.18405l-11.12674,40.74671h-3.07905Z"/>
    <path class="cls-2" d="M947.68194,822.63027l10.22872-40.74671h3.79056l10.28702,40.74671h-3.3124l-2.53091-11.2766h-12.63135l-2.58921,11.2766h-3.25403.0116ZM953.99182,809.35102h11.73325l-5.90161-24.15531-5.83164,24.15531Z"/>
    <path class="cls-2" d="M978.6596,822.63027v-40.74671h3.25403v38.58995h14.7424v2.15676h-17.99643Z"/>
    <path class="cls-2" d="M1001.40299,822.63027v-40.74671h3.25403v40.74671h-3.25403Z"/>
    <path class="cls-2" d="M1020.41418,822.63027v-38.54378h-9.75048v-2.21835h22.49843v2.21835h-9.5056v38.54378h-3.24242.00007Z"/>
    <path class="cls-2" d="M1034.25849,822.63027l10.22872-40.74671h3.79056l10.28702,40.74671h-3.3124l-2.53091-11.2766h-12.63135l-2.58921,11.2766h-3.25403.0116ZM1040.56829,809.35102h11.73325l-5.90161-24.15531-5.83164,24.15531Z"/>
    <path class="cls-2" d="M1064.87458,828.00666l-.83972-1.15539c1.03805-.63157,1.72614-1.24782,2.04107-1.83322.32661-.5854.47816-1.3865.47816-2.38778h-2.16935v-5.28396h3.84887v4.7294c0,1.54052-.24495,2.75749-.72312,3.62018-.47816.87811-1.36458,1.64837-2.64759,2.31078h.01167Z"/>
    <path class="cls-2" d="M1087.67627,822.63027v-40.74671h3.3124v22.89207l14.13588-22.89207h3.25403l-10.28702,17.25382,12.75963,23.49289h-3.25403l-11.4883-21.13586-5.10852,7.79502v13.34084h-3.32408Z"/>
    <path class="cls-2" d="M1122.09461,822.63027v-38.54378h-9.75048v-2.21835h22.49843v2.21835h-9.5056v38.54378h-3.24242.00007Z"/>
    <path class="cls-2" d="M1151.81261,823.18484c-3.17238,0-5.62171-.52382-7.3712-1.58678s-2.96245-2.49563-3.63894-4.32885c-.68816-1.83322-1.02637-3.89755-1.02637-6.20833v-17.80838c0-2.31078.36156-4.35969,1.08468-6.13123.72312-1.77163,1.95942-3.17346,3.69724-4.17484s4.1638-1.50968,7.25452-1.50968,5.50503.5084,7.25452,1.50968c1.74949,1.00137,2.97412,2.4032,3.69724,4.17484s1.08468,3.82045,1.08468,6.13123v17.85464c0,2.31078-.33821,4.37511-1.02637,6.19291-.67649,1.8178-1.88944,3.25047-3.63894,4.29801s-4.19875,1.58678-7.3712,1.58678h.00014ZM1151.81261,820.92032c2.32098,0,4.11717-.38513,5.38843-1.15539,1.25965-.77026,2.1344-1.84864,2.61256-3.25047.47816-1.3865.72312-3.00403.72312-4.85267v-18.80975c0-1.84864-.24495-3.45074-.72312-4.83725-.47816-1.37108-1.34131-2.43404-2.58921-3.18888-1.24798-.75484-3.0441-1.12455-5.41178-1.12455s-4.11717.36971-5.38843,1.12455-2.1344,1.8178-2.61256,3.18888-.72312,2.98861-.72312,4.83725v18.80975c0,1.84864.24495,3.46616.72312,4.85267s1.35291,2.48021,2.61256,3.25047,3.05577,1.15539,5.38843,1.15539Z"/>
    <path class="cls-2" d="M1172.09506,822.63027v-40.74671h11.79155c2.89247,0,5.10852.44672,6.64808,1.34024s2.61256,2.09508,3.18405,3.62018c.58316,1.5251.87475,3.23505.87475,5.11453,0,1.50968-.18658,2.95777-.57149,4.32885s-1.08468,2.54189-2.11105,3.49701-2.51924,1.57136-4.47873,1.83322l7.82608,21.0281h-3.25403l-7.58113-20.53513h-9.08567v20.53513h-3.25403l.0116-.01542ZM1175.33742,799.98464h8.42085c2.0877,0,3.67396-.32354,4.75864-.98595,1.08468-.64699,1.83114-1.58678,2.251-2.78833s.62979-2.63432.62979-4.28268c0-2.58806-.51319-4.54455-1.53956-5.88479s-3.07912-2.01807-6.16985-2.01807h-8.36255v15.94432l.01167.01551Z"/>
    <path class="cls-2" d="M1200.30853,822.63027l10.22872-40.74671h3.79056l10.28702,40.74671h-3.3124l-2.53091-11.2766h-12.63135l-2.58921,11.2766h-3.25403.0116ZM1206.63001,809.35102h11.73325l-5.90161-24.15531-5.83164,24.15531ZM1211.68022,779.46494l3.84887-9.76692h3.25403l-5.41178,9.76692h-1.69112Z"/>
    <path class="cls-2" d="M1242.90276,822.63027v-40.74671h2.58921l16.55019,34.41521v-34.41521h2.89247v40.74671h-2.58921l-16.55019-34.46137v34.46137h-2.89247Z"/>
    <path class="cls-2" d="M1274.07875,822.63027v-40.74671h16.84177v2.21835h-13.54105v16.34487h11.12674v2.1105h-11.12674v17.91623h13.71602v2.15676h-17.02835.0116Z"/>
    <path class="cls-2" d="M1298.02341,822.63027v-40.74671h11.43c2.92749,0,5.21345.46214,6.85801,1.3865,1.64449.92427,2.79921,2.17209,3.46396,3.74345.66482,1.57136.99135,3.37374.99135,5.37639,0,1.8178-.32661,3.54317-.99135,5.17612-.66482,1.64837-1.81947,2.98861-3.46396,4.02073s-3.90717,1.55594-6.79971,1.55594h-8.24594v19.47217h-3.25403l.01167.01542ZM1301.26584,801.0476h7.52283c1.95942,0,3.58063-.27728,4.84029-.86269,1.25965-.56998,2.20438-1.47893,2.82249-2.74217s.93305-2.94235.93305-5.05294-.27991-3.88213-.83972-5.09911-1.46958-2.07966-2.70589-2.57264c-1.24798-.49298-2.90414-.724-4.99192-.724h-7.58113v17.05354Z"/>
    <path class="cls-2" d="M1338.44833,823.18484c-3.17241,0-5.62171-.52382-7.3712-1.58678s-2.96248-2.49563-3.63894-4.32885c-.68813-1.83322-1.02637-3.89755-1.02637-6.20833v-17.80838c0-2.31078.36156-4.35969,1.08468-6.13123.72312-1.77163,1.95942-3.17346,3.69727-4.17484s4.1638-1.50968,7.25456-1.50968,5.50507.5084,7.25456,1.50968c1.74949,1.00137,2.97412,2.4032,3.69727,4.17484.72312,1.77163,1.08468,3.82045,1.08468,6.13123v17.85464c0,2.31078-.33824,4.37511-1.02637,6.19291-.67645,1.8178-1.88944,3.25047-3.63894,4.29801s-4.19879,1.58678-7.3712,1.58678ZM1338.44833,820.92032c2.32098,0,4.11713-.38513,5.38843-1.15539,1.25962-.77026,2.13436-1.84864,2.61256-3.25047.4782-1.3865.72312-3.00403.72312-4.85267v-18.80975c0-1.84864-.24492-3.45074-.72312-4.83725-.4782-1.37108-1.34127-2.43404-2.58925-3.18888s-3.0441-1.12455-5.41178-1.12455-4.11713.36971-5.38843,1.12455-2.13436,1.8178-2.61256,3.18888-.72312,2.98861-.72312,4.83725v18.80975c0,1.84864.24492,3.46616.72312,4.85267s1.35294,2.48021,2.61256,3.25047,3.05577,1.15539,5.38843,1.15539h.00004Z"/>
    <path class="cls-2" d="M1358.73078,822.63027v-40.74671h10.64858c3.25406,0,5.77334.52382,7.58113,1.55594,1.80779,1.04754,3.06745,2.44946,3.79056,4.221.72312,1.77163,1.08468,3.75887,1.08468,5.93096v16.89943c0,2.31078-.36156,4.39044-1.08468,6.20833-.72312,1.83322-1.95942,3.26589-3.69727,4.32885s-4.19879,1.58678-7.3712,1.58678h-10.95183l.00004.01542ZM1361.97317,820.45818h7.52283c2.64755,0,4.60701-.46214,5.90161-1.41725,1.28297-.93969,2.12272-2.18751,2.53095-3.74345.39655-1.55594.60648-3.26589.60648-5.11453v-16.40655c0-1.98723-.24492-3.69728-.72312-5.1607s-1.38793-2.58806-2.70589-3.37374-3.23071-1.18623-5.715-1.18623h-7.39451v36.3716l-.02335.03084Z"/>
    <path class="cls-2" d="M1390.07,822.63027v-40.74671h11.79155c2.89251,0,5.10852.44672,6.64808,1.34024s2.61256,2.09508,3.18409,3.62018c.58316,1.5251.87475,3.23505.87475,5.11453,0,1.50968-.18662,2.95777-.57149,4.32885s-1.08468,2.54189-2.11105,3.49701-2.51927,1.57136-4.47869,1.83322l7.82605,21.0281h-3.25406l-7.58113-20.53513h-9.0857v20.53513h-3.25406l.01167-.01542ZM1393.32406,799.98464h8.42089c2.08774,0,3.67392-.32354,4.7586-.98595,1.08468-.64699,1.83114-1.58678,2.251-2.78833s.62983-2.63432.62983-4.28268c0-2.58806-.51319-4.54455-1.53956-5.88479s-3.07912-2.01807-6.16988-2.01807h-8.36258v15.94432l.01171.01551Z"/>
    <path class="cls-2" d="M1420.81441,822.63027v-40.74671h16.84177v2.21835h-13.54105v16.34487h11.12677v2.1105h-11.12677v17.91623h13.71602v2.15676h-17.02839.01164Z"/>
    <path class="cls-2" d="M1442.11153,822.63027v-2.15676l17.50659-36.43328h-15.94371v-2.15676h19.48932v1.70995l-17.6932,36.88h17.75151v2.15676h-21.12221l.01171.00009Z"/>
    <path class="cls-2" d="M1466.5461,822.63027l10.22868-40.74671h3.79056l10.28702,40.74671h-3.31237l-2.53095-11.2766h-12.63131l-2.58925,11.2766h-3.25406.01167ZM1472.85594,809.35102h11.73325l-5.90161-24.15531-5.83164,24.15531ZM1477.9178,779.46494l3.84887-9.76692h3.25406l-5.41178,9.76692h-1.69115Z"/>
    <path class="cls-2" d="M1503.72863,822.63027l-11.79155-40.74671h3.25406l10.11208,35.97105,9.44726-35.97105h3.18409l-11.12677,40.74671h-3.07916Z"/>
    <path class="cls-2" d="M1519.00753,822.63027l10.22868-40.74671h3.79056l10.28702,40.74671h-3.31237l-2.53095-11.2766h-12.63131l-2.58925,11.2766h-3.25406.01167ZM1525.329,809.35102h11.73325l-5.90161-24.15531-5.83164,24.15531Z"/>
    <path class="cls-2" d="M1561.6018,822.63027v-40.74671h11.43c2.92749,0,5.21349.46214,6.85801,1.3865,1.64453.92427,2.79918,2.17209,3.46399,3.74345s.99139,3.37374.99139,5.37639c0,1.8178-.32657,3.54317-.99139,5.17612-.66482,1.64837-1.81947,2.98861-3.46399,4.02073s-3.9072,1.55594-6.79967,1.55594h-8.24594v19.47217h-3.25406l.01167.01542ZM1564.85586,801.0476h7.52283c1.95942,0,3.58063-.27728,4.84025-.86269,1.25962-.56998,2.20438-1.47893,2.82253-2.74217s.93305-2.94235.93305-5.05294-.27991-3.88213-.83976-5.09911-1.46958-2.07966-2.70589-2.57264c-1.24798-.49298-2.90414-.724-4.99188-.724h-7.58113v17.05354Z"/>
    <path class="cls-2" d="M1591.02825,822.63027v-40.74671h11.79155c2.89251,0,5.10852.44672,6.64808,1.34024s2.61256,2.09508,3.18409,3.62018c.58316,1.5251.87475,3.23505.87475,5.11453,0,1.50968-.18662,2.95777-.57149,4.32885s-1.08468,2.54189-2.11105,3.49701-2.51927,1.57136-4.47869,1.83322l7.82605,21.0281h-3.25406l-7.58113-20.53513h-9.0857v20.53513h-3.25406l.01167-.01542ZM1594.27064,799.98464h8.42089c2.08774,0,3.67392-.32354,4.7586-.98595,1.08468-.64699,1.83114-1.58678,2.251-2.78833s.62983-2.63432.62983-4.28268c0-2.58806-.51319-4.54455-1.53956-5.88479s-3.07912-2.01807-6.16988-2.01807h-8.36258v15.94432l.01171.01551Z"/>
    <path class="cls-2" d="M1632.84108,823.18484c-3.17241,0-5.62171-.52382-7.3712-1.58678s-2.96246-2.49563-3.63894-4.32885c-.68813-1.83322-1.02637-3.89755-1.02637-6.20833v-17.80838c0-2.31078.36156-4.35969,1.08468-6.13123.72312-1.77163,1.95942-3.17346,3.69726-4.17484s4.1638-1.50968,7.25456-1.50968,5.50507.5084,7.25456,1.50968c1.74949,1.00137,2.97414,2.4032,3.69726,4.17484s1.08468,3.82045,1.08468,6.13123v17.85464c0,2.31078-.33823,4.37511-1.02637,6.19291-.67647,1.8178-1.88944,3.25047-3.63894,4.29801s-4.19879,1.58678-7.3712,1.58678h.00004ZM1632.84108,820.92032c2.321,0,4.11713-.38513,5.38843-1.15539,1.25964-.77026,2.13438-1.84864,2.61258-3.25047.4782-1.3865.72312-3.00403.72312-4.85267v-18.80975c0-1.84864-.24494-3.45074-.72312-4.83725-.4782-1.37108-1.34127-2.43404-2.58925-3.18888s-3.04412-1.12455-5.41176-1.12455-4.11713.36971-5.38843,1.12455-2.13438,1.8178-2.61258,3.18888-.72312,2.98861-.72312,4.83725v18.80975c0,1.84864.24494,3.46616.72312,4.85267.4782,1.3865,1.35294,2.48021,2.61258,3.25047s3.05577,1.15539,5.38843,1.15539Z"/>
    <path class="cls-2" d="M1649.08802,824.89488v-2.15676c1.80781,0,3.21906-.10785,4.24543-.30812s1.78448-.56998,2.28601-1.10913c.50151-.53914.81643-1.3094.96805-2.31078.13995-1.00137.20993-2.31078.20993-3.9283v-33.19814h3.24239v33.50626c0,2.18751-.19827,3.97456-.6065,5.39181-.39655,1.40183-1.25964,2.44946-2.58925,3.11188s-3.34735,1.00137-6.07657,1.00137h-1.67951l.00002-.00009Z"/>
    <path class="cls-2" d="M1669.24216,822.63027v-40.74671h16.84177v2.21835h-13.54106v16.34487h11.12676v2.1105h-11.12676v17.91623h13.71601v2.15676h-17.02839.01167Z"/>
    <path class="cls-2" d="M1693.12854,822.63027v-40.74671h3.31237v22.89207l14.13588-22.89207h3.25405l-10.287,17.25382,12.75963,23.49289h-3.25405l-11.48833-21.13586-5.10852,7.79502v13.34084h-3.32402Z"/>
    <path class="cls-2" d="M1727.54688,822.63027v-38.54378h-9.7505v-2.21835h22.49845v2.21835h-9.50556v38.54378h-3.24239Z"/>
    <path class="cls-2" d="M1754.19745,822.63027v-13.03281l-11.25505-27.7139h3.37069l9.56388,24.44801,9.08568-24.44801h3.37069l-10.89349,27.7139v13.03281h-3.25405.01166Z"/>
  </g>
  <path class="cls-1" d="M117.455,689.25222l.08158-366.72022,106.97553.03079v70.84839l-52.58967-.01542v71.46459l50.43199.01542v68.96901l-50.46701-.01542-.02335,83.97363h56.0653l-.01167,71.48006-110.46283-.03084h.00014Z"/>
  <path class="cls-1" d="M246.03093,689.28306v-66.67356l61.30224-232.51032h-55.3073l.01167-67.52092,111.68754.03079v64.17797l-62.37517,235.00595h59.71591l-.01167,67.52092-115.02322-.03084Z"/>
  <path class="cls-1" d="M385.69866,689.32932l.08158-366.72022h51.65669l-.08158,366.73564h-51.65669v-.01542Z"/>
  <path class="cls-1" d="M490.71483,689.36007l-32.89038-366.93591h50.89855l19.53599,249.64087,17.52994-249.61008h50.89855l-33.06536,366.93596-72.93049-.03084h.02321Z"/>
  <path class="cls-1" d="M605.91303,689.40633l25.91576-366.7048,90.71699.03079,25.28597,366.72026h-50.59522l-3.79056-59.18666h-32.21396l-3.35903,59.15592h-51.97162l.01167-.01551ZM665.05745,571.69532h24.3179l-11.6516-186.47965h-2.42591l-10.22872,186.47965h-.01167Z"/>
  <path class="cls-1" d="M771.71812,689.4525l.08165-366.72022,82.05111.03079c13.681,0,24.00304,4.28264,30.98933,12.81712,6.98629,8.54985,11.67495,20.48887,14.04256,35.84783,2.37928,15.35896,3.56896,33.38304,3.55728,54.07213,0,19.99589-1.85449,35.97105-5.56341,47.92548-3.69724,11.93901-10.67193,20.21158-20.90057,24.78697,8.40925,2.37236,14.29919,8.10314,17.69317,17.19214,3.39398,9.10442,5.08517,20.874,5.08517,35.32406l-.03502,138.76986h-52.72969l.03502-143.57627c0-10.6912-1.59786-17.33082-4.78191-19.90346-3.19573-2.57264-8.3276-3.85129-15.41882-3.85129l-.03502,167.3156h-54.09428l.02342-.03075ZM826.17395,458.60596h12.91125c7.39455,0,11.09179-11.03007,11.10346-33.12113,0-14.31142-.80477-23.67775-2.42598-28.12987-1.62121-4.4367-4.65364-6.67042-9.12069-6.67042h-12.45637l-.01167,67.92142Z"/>
  <path class="cls-1" d="M925.05523,689.51418l.08165-366.72022h51.65662l-.08165,366.73564h-51.65662v-.01542Z"/>
  <path class="cls-1" d="M1067.31217,692.88792c-22.2885,0-38.69874-8.59612-49.23071-25.74208-10.53197-17.16139-15.79205-42.4105-15.78045-75.74723l.0583-268.57385h51.97155l-.0583,265.67767c0,6.11581.24495,11.98527.75814,17.60811.50151,5.62293,1.66784,10.24448,3.48731,13.84924,1.81947,3.62018,4.75864,5.42265,8.81743,5.42265,4.15212,0,7.13792-1.77163,8.96906-5.3148,1.81947-3.54317,2.96245-8.16472,3.41733-13.84924.45488-5.69993.68816-11.60014.68816-17.71595l.0583-265.66229h51.97155l-.0583,268.58932c0,33.33683-5.2835,58.58593-15.8154,75.73181-10.54358,17.16139-26.95381,25.72666-49.24231,25.71124l-.01167.01542Z"/>
  <path class="cls-1" d="M1160.32679,689.59119l.08165-366.72022,81.44467.03079,22.44013,223.57529,22.3935-223.55992,82.20278.03079-.08165,366.72026h-48.92742l.0583-264.2142-30.75605,264.19878h-48.01768l-32.45892-264.22962-.0583,264.19878h-48.32094l-.00007-.03075Z"/>
  <path class="cls-1" d="M1396.47312,689.4525v-62.09826l54.40917.01542v62.09826l-54.40917-.01542Z"/>
  <path class="cls-1" d="M1542.06581,693.04193c-24.41123,0-42.0111-8.34958-52.79963-25.01799s-16.17696-43.2115-16.16528-79.59852v-35.83246l52.88129.01542v45.84582c-.01167,8.47285.92141,15.11247,2.79918,19.90346s5.14351,7.19419,9.79714,7.19419c4.8636,0,8.23427-1.94107,10.1004-5.83853,1.87777-3.88213,2.81085-10.27523,2.81085-19.16404,0-11.24576-.80477-20.6583-2.42595-28.23772-1.62121-7.5639-4.43203-14.78893-8.43256-21.6751-4.00049-6.87074-9.55223-14.89678-16.63184-24.0783l-24.003-31.25707c-17.92645-23.20019-26.88384-49.72796-26.8722-79.59852,0-31.25712,5.30678-55.07351,15.89705-71.46464,10.59024-16.39113,25.9158-24.57128,45.96497-24.57128,24.51619,0,41.90614,8.96582,52.19316,26.89743,10.27534,17.91623,15.40718,45.15257,15.40718,81.67823h-54.3975v-25.23369c0-5.00668-1.03805-8.88877-3.11411-11.66173-2.07606-2.77291-4.88692-4.17479-8.43256-4.17479-4.25709,0-7.3712,1.63294-9.34229,4.89883s-2.96248,7.47152-2.96248,12.60142c0,5.14532,1.00302,10.70662,3.03246,16.66837,2.0294,5.97722,6.01825,12.84796,12.00152,20.62755l30.8377,40.63886c6.18152,8.05688,11.84989,16.57599,17.01671,25.52639,5.16682,8.96582,9.31895,19.37974,12.45637,31.25707,3.13742,11.87743,4.7003,26.35824,4.7003,43.44262,0,34.44595-4.65364,61.43585-13.92595,80.93877-9.27232,19.51833-25.41429,29.26984-48.40259,29.25442l.01167.01551Z"/>
  <path class="cls-1" d="M1629.61035,689.7452l.08165-366.72022h52.88129l-.03499,146.90374,24.9594-146.88837h53.79102l-29.97461,167.94722,36.12117,198.78837h-55.45888l-29.13486-177.54466-.04665,177.52924h-53.18454v-.01533Z"/>
</svg>