<?xml version="1.0" encoding="UTF-8"?>
<svg id="Layer_1" data-name="Layer 1" xmlns="http://www.w3.org/2000/svg" xmlns:xlink="http://www.w3.org/1999/xlink" viewBox="0 0 1920 1080">
  <defs>
    <style>
      .cls-1 {
        fill: #5c4328;
        opacity: .8;
      }

      .cls-1, .cls-2 {
        isolation: isolate;
      }

      .cls-3 {
        fill: url(#linear-gradient-8);
      }

      .cls-4 {
        fill: url(#linear-gradient-7);
      }

      .cls-5 {
        fill: url(#linear-gradient-5);
      }

      .cls-6 {
        fill: url(#linear-gradient-6);
      }

      .cls-7 {
        fill: url(#linear-gradient-4);
      }

      .cls-8 {
        fill: url(#linear-gradient-3);
      }

      .cls-9 {
        fill: url(#linear-gradient-2);
      }

      .cls-10 {
        fill: url(#linear-gradient);
      }

      .cls-2 {
        fill: #f6d79c;
        opacity: .4;
      }
    </style>
    <linearGradient id="linear-gradient" x1="532.70546" y1="-1831.04419" x2="1620.07561" y2="-1539.68432" gradientTransform="translate(0 2282)" gradientUnits="userSpaceOnUse">
      <stop offset="0" stop-color="#f8d089"/>
      <stop offset=".12" stop-color="#f3c67a" stop-opacity=".87"/>
      <stop offset=".26" stop-color="#d7a45c" stop-opacity=".63"/>
      <stop offset=".43" stop-color="#bf914f" stop-opacity=".34"/>
      <stop offset=".6" stop-color="#a27238" stop-opacity=".12"/>
      <stop offset=".78" stop-color="#6d4a24" stop-opacity=".02"/>
    </linearGradient>
    <linearGradient id="linear-gradient-2" x1="531.00348" y1="-1831.58958" x2="1620.67361" y2="-1539.61963" xlink:href="#linear-gradient"/>
    <linearGradient id="linear-gradient-3" x1="533.14679" y1="-1831.60866" x2="1621.11678" y2="-1540.08864" xlink:href="#linear-gradient"/>
    <linearGradient id="linear-gradient-4" x1="616.86336" y1="-1394.78163" x2="936.03328" y2="-1394.78163" gradientTransform="translate(0 2282)" gradientUnits="userSpaceOnUse">
      <stop offset="0" stop-color="#c9963e"/>
      <stop offset=".03" stop-color="#c6933d" stop-opacity=".97"/>
      <stop offset=".51" stop-color="#9d712e" stop-opacity=".45"/>
      <stop offset=".84" stop-color="#835b25" stop-opacity=".13"/>
      <stop offset="1" stop-color="#7a5322" stop-opacity="0"/>
    </linearGradient>
    <linearGradient id="linear-gradient-5" x1="757.13117" y1="-1651.72583" x2="1497.37117" y2="-1224.34594" gradientTransform="translate(0 2282)" gradientUnits="userSpaceOnUse">
      <stop offset="0" stop-color="#eac06a"/>
      <stop offset=".15" stop-color="#cfa85c" stop-opacity=".83"/>
      <stop offset=".57" stop-color="#886a37" stop-opacity=".39"/>
      <stop offset=".86" stop-color="#5c4320" stop-opacity=".11"/>
      <stop offset="1" stop-color="#4b3418" stop-opacity="0"/>
    </linearGradient>
    <linearGradient id="linear-gradient-6" x1="679.18831" y1="-1309.32163" x2="679.18831" y2="-2492.38169" gradientTransform="translate(0 2282)" gradientUnits="userSpaceOnUse">
      <stop offset="0" stop-color="#7a5322"/>
      <stop offset=".24" stop-color="#6d4a1f" stop-opacity=".74"/>
      <stop offset=".76" stop-color="#543a1a" stop-opacity=".21"/>
      <stop offset="1" stop-color="#4b3418" stop-opacity="0"/>
    </linearGradient>
    <linearGradient id="linear-gradient-7" x1="614.28328" y1="-1718.17167" x2="1484.32332" y2="-1718.17167" gradientTransform="translate(0 2282)" gradientUnits="userSpaceOnUse">
      <stop offset="0" stop-color="#f5cc7a"/>
      <stop offset=".19" stop-color="#ebc06d" stop-opacity=".79"/>
      <stop offset=".59" stop-color="#d9aa54" stop-opacity=".37"/>
      <stop offset=".87" stop-color="#cd9b44" stop-opacity=".1"/>
      <stop offset="1" stop-color="#c9963e" stop-opacity="0"/>
    </linearGradient>
    <linearGradient id="linear-gradient-8" x1="614.29329" y1="-1718.16667" x2="1478.39339" y2="-1718.16667" xlink:href="#linear-gradient-7"/>
  </defs>
  <polygon class="cls-10" points="1249.84334 469.08834 1254.23324 289.75835 1042.31331 103.24834 625.87337 103.24834 628.34334 960.83834 846.74325 960.83834 846.79329 679.27834 754.94344 586.57833 849.36336 494.07836 853.37337 311.70833 758.21322 220.80834 993.57332 220.80834 1121.9034 335.35836 1125.60335 424.27834 1029.36336 519.22835 870.54329 515.45833 799.44344 586.74837 892.33333 677.74837 1086.82332 959.30837 1247.96322 1021.49837 1249.61336 850.96834 1086.97323 623.94832 1249.84334 469.08834"/>
  <polygon class="cls-1" points="1090.53328 949.00832 897.28328 669.22835 812.69344 587.99837 872.08333 527.38833 1033.48324 532.48836 1133.68343 429.69835 1129.49325 329.11834 994.89339 208.96834 728.22323 208.96834 841.70321 317.35836 837.94344 488.27834 737.73324 586.44832 835.24325 684.84835 838.36336 947.60836 636.1534 948.99837 633.75326 115.08835 1037.33333 115.08835 1242.54329 295.69835 1238.44344 463.16836 1071.06331 622.30837 1238.08333 855.43837 1237.09334 1005.30837 1090.53328 949.00832"/>
  <polygon class="cls-2" points="1079.4034 969.60836 883.68343 686.26833 782.21322 586.85836 865.3033 503.53835 1024.16341 507.30834 1113.82332 418.85836 1110.60335 341.58834 988.56331 232.64835 784.49325 232.64835 861.34334 306.05834 857.08333 499.88836 768.44344 586.71834 854.63338 673.69832 854.58333 972.67837 616.83333 972.67837 614.29329 91.40835 1043.59334 91.40835 1262.22323 283.82836 1257.5533 475.00835 1099.18343 625.58834 1257.44344 846.49837 1257.96322 1036.25832 1079.4034 969.60836"/>
  <polygon class="cls-9" points="1249.84334 469.08834 1254.23324 289.75835 1042.75326 102.68834 624.02327 103.24834 626.49325 960.83834 846.91341 960.84835 844.94344 679.27834 753.09334 586.57833 847.51326 494.07836 851.52327 311.70833 756.36336 220.80834 993.57332 220.80834 1121.9034 335.35836 1125.43343 423.94835 1027.50326 519.22835 868.69344 515.45833 796.97323 587.34835 890.48324 677.74837 1084.96322 959.30837 1247.96322 1021.44832 1247.76326 850.96834 1085.12337 623.94832 1249.84334 469.08834"/>
  <polygon class="cls-8" points="1250.28328 468.51833 1254.67342 289.19835 1042.75326 102.68834 626.31331 102.68834 628.78328 960.26833 847.09334 961.05837 846.73324 679.24837 755.37337 586.01833 849.8033 493.51833 853.81331 311.14834 758.64339 220.24834 994.01326 220.24834 1122.33333 334.78835 1125.75326 424.13836 1029.51326 519.08834 868.84334 515.31835 797.12337 587.20833 892.77327 677.18837 1087.25326 958.74837 1248.54329 1022.20833 1250.0533 850.40835 1087.41341 623.38833 1250.28328 468.51833"/>
  <polygon class="cls-7" points="854.61336 972.74837 744.12337 801.68837 616.86336 972.74837 854.61336 972.74837"/>
  <polygon class="cls-5" points="782.20321 586.84835 783.87337 586.90835 959.09334 593.61837 1257.96322 1036.24831 1079.4034 969.59835 883.68343 686.25832 782.20321 586.84835"/>
  <polyline class="cls-6" points="614.29329 91.40835 743.51326 211.60834 744.08333 801.61837 616.83333 972.67837 614.29329 91.40835"/>
  <polygon class="cls-4" points="614.28328 91.40835 742.9034 210.69834 994.89339 208.96834 1129.49325 329.11834 1133.68343 429.69835 1033.48324 532.48836 872.08333 527.42837 812.67342 588.06832 958.83333 593.52834 1257.96322 1036.24831 1256.83333 846.73836 1100.73324 625.93837 1258.68343 474.45833 1262.38338 284.54836 1043.59334 91.40835 614.28328 91.40835"/>
  <polygon class="cls-3" points="614.29329 91.40835 743.08333 211.60834 993.59334 208.91834 1127.79329 329.12835 1131.96322 429.70833 1032.41341 532.90835 871.54329 527.84835 812.82332 588.46834 955.46322 594.45833 1257.96322 1036.25832 1252.43343 847.62832 1096.87337 626.85836 1254.27327 475.39834 1257.96322 285.51833 1039.69344 92.62835 614.29329 91.40835"/>
</svg>