<?xml version="1.0" encoding="UTF-8"?>
<svg id="Layer_1" data-name="Layer 1" xmlns="http://www.w3.org/2000/svg" xmlns:xlink="http://www.w3.org/1999/xlink" viewBox="0 0 1920 1080">
  <defs>
    <style>
      .cls-1 {
        fill: #5c4328;
        opacity: .8;
      }

      .cls-1, .cls-2 {
        isolation: isolate;
      }

      .cls-3 {
        stroke: #000;
        stroke-miterlimit: 10;
      }

      .cls-3, .cls-4 {
        fill: #2b2216;
      }

      .cls-5 {
        fill: url(#linear-gradient-8);
      }

      .cls-6 {
        fill: url(#linear-gradient-7);
      }

      .cls-7 {
        fill: url(#linear-gradient-5);
      }

      .cls-8 {
        fill: url(#linear-gradient-6);
      }

      .cls-9 {
        fill: url(#linear-gradient-4);
      }

      .cls-10 {
        fill: url(#linear-gradient-3);
      }

      .cls-11 {
        fill: url(#linear-gradient-2);
      }

      .cls-12 {
        fill: url(#linear-gradient);
      }

      .cls-2 {
        fill: #f6d79c;
        opacity: .4;
      }
    </style>
    <linearGradient id="linear-gradient" x1="74.261" y1="1753.96737" x2="574.26101" y2="1619.9974" gradientTransform="translate(0 2222) scale(1 -1)" gradientUnits="userSpaceOnUse">
      <stop offset="0" stop-color="#f8d089"/>
      <stop offset=".12" stop-color="#f3c67a" stop-opacity=".87"/>
      <stop offset=".26" stop-color="#d7a45c" stop-opacity=".63"/>
      <stop offset=".43" stop-color="#bf914f" stop-opacity=".34"/>
      <stop offset=".6" stop-color="#a27238" stop-opacity=".12"/>
      <stop offset=".78" stop-color="#6d4a24" stop-opacity=".02"/>
    </linearGradient>
    <linearGradient id="linear-gradient-2" x1="73.4567" y1="1754.21329" x2="574.53667" y2="1619.95328" xlink:href="#linear-gradient"/>
    <linearGradient id="linear-gradient-3" x1="74.47084" y1="1754.21247" x2="574.75075" y2="1620.16248" xlink:href="#linear-gradient"/>
    <linearGradient id="linear-gradient-4" x1="109.97174" y1="1562.7033" x2="259.98163" y2="1562.7033" gradientTransform="translate(0 2222) scale(1 -1)" gradientUnits="userSpaceOnUse">
      <stop offset="0" stop-color="#c9963e"/>
      <stop offset=".03" stop-color="#c6933d" stop-opacity=".97"/>
      <stop offset=".51" stop-color="#9d712e" stop-opacity=".45"/>
      <stop offset=".84" stop-color="#835b25" stop-opacity=".13"/>
      <stop offset="1" stop-color="#7a5322" stop-opacity="0"/>
    </linearGradient>
    <linearGradient id="linear-gradient-5" x1="178.92314" y1="1677.92255" x2="517.46317" y2="1482.47255" gradientTransform="translate(0 2222) scale(1 -1)" gradientUnits="userSpaceOnUse">
      <stop offset="0" stop-color="#eac06a"/>
      <stop offset=".15" stop-color="#cfa85c" stop-opacity=".83"/>
      <stop offset=".57" stop-color="#886a37" stop-opacity=".39"/>
      <stop offset=".86" stop-color="#5c4320" stop-opacity=".11"/>
      <stop offset="1" stop-color="#4b3418" stop-opacity="0"/>
    </linearGradient>
    <linearGradient id="linear-gradient-6" x1="139.26166" y1="1525.60332" x2="139.26166" y2="2039.18334" gradientTransform="translate(0 2222) scale(1 -1)" gradientUnits="userSpaceOnUse">
      <stop offset="0" stop-color="#7a5322"/>
      <stop offset=".24" stop-color="#6d4a1f" stop-opacity=".74"/>
      <stop offset=".76" stop-color="#543a1a" stop-opacity=".21"/>
      <stop offset="1" stop-color="#4b3418" stop-opacity="0"/>
    </linearGradient>
    <linearGradient id="linear-gradient-7" x1="108.76166" y1="1703.09331" x2="517.67169" y2="1703.09331" gradientTransform="translate(0 2222) scale(1 -1)" gradientUnits="userSpaceOnUse">
      <stop offset="0" stop-color="#f5cc7a"/>
      <stop offset=".19" stop-color="#ebc06d" stop-opacity=".79"/>
      <stop offset=".59" stop-color="#d9aa54" stop-opacity=".37"/>
      <stop offset=".87" stop-color="#cd9b44" stop-opacity=".1"/>
      <stop offset="1" stop-color="#c9963e" stop-opacity="0"/>
    </linearGradient>
    <linearGradient id="linear-gradient-8" y1="1703.08834" x2="514.88166" y2="1703.08834" xlink:href="#linear-gradient-7"/>
  </defs>
  <g>
    <path class="cls-4" d="M1106.38166,777.01667v-26.45001h2.84003v14.85999l12.12-14.85999h2.78998l-8.82001,11.20001,10.94,15.25h-2.78998l-9.84998-13.71997-4.38,5.06v8.65997h-2.85004Z"/>
    <path class="cls-4" d="M1137.84168,777.01667l-10.10999-26.45001h2.78998l8.66998,23.34998,8.09998-23.34998h2.72998l-9.53998,26.45001h-2.63995Z"/>
    <path class="cls-4" d="M1150.95166,777.01667l8.77002-26.45001h3.25l8.82001,26.45001h-2.84003l-2.16998-7.32001h-10.83002l-2.21997,7.32001h-2.78998.00995ZM1156.3617,768.39668h10.06l-5.06-15.67999-5,15.67999Z"/>
    <path class="cls-4" d="M1177.51166,777.01667v-26.45001h2.78998v25.04999h12.64001v1.40002h-15.42999Z"/>
    <path class="cls-4" d="M1197.01166,777.01667v-26.45001h2.78998v26.45001h-2.78998Z"/>
    <path class="cls-4" d="M1213.31171,777.01667v-25.02002h-8.35999v-1.44h19.28998v1.44h-8.15002v25.02002h-2.78003.00006Z"/>
    <path class="cls-4" d="M1225.1817,777.01667l8.77002-26.45001h3.25l8.82001,26.45001h-2.84003l-2.16998-7.32001h-10.83002l-2.21997,7.32001h-2.78998.00995ZM1230.59168,768.39668h10.06l-5.06-15.67999-5,15.67999Z"/>
    <path class="cls-4" d="M1251.4317,780.50666l-.71997-.75c.89001-.40997,1.47998-.81,1.75-1.19.28003-.38.40997-.90002.40997-1.54999h-1.85999v-3.42999h3.29999v3.07001c0,1-.21002,1.78998-.62,2.34998-.40997.57001-1.16998,1.07001-2.27002,1.5h.01001Z"/>
    <path class="cls-4" d="M1270.98169,777.01667v-26.45001h2.84003v14.85999l12.12-14.85999h2.78998l-8.82001,11.20001,10.94,15.25h-2.78998l-9.84998-13.71997-4.38,5.06v8.65997h-2.85004Z"/>
    <path class="cls-4" d="M1300.4917,777.01667v-25.02002h-8.35999v-1.44h19.28998v1.44h-8.15002v25.02002h-2.78003.00006Z"/>
    <path class="cls-4" d="M1325.97168,777.37666c-2.71997,0-4.82001-.34003-6.32001-1.03003s-2.53998-1.62-3.12-2.81c-.59003-1.19-.88-2.53003-.88-4.03003v-11.56c0-1.5.31-2.83002.92999-3.97998.62-1.15002,1.67999-2.06,3.16998-2.71002s3.57001-.97998,6.21997-.97998,4.71997.33002,6.21997.97998c1.5.65002,2.54999,1.56,3.16998,2.71002s.92999,2.47998.92999,3.97998v11.59003c0,1.5-.28998,2.84003-.88,4.02002-.58002,1.17999-1.62,2.10999-3.12,2.78998s-3.59998,1.03003-6.32001,1.03003h.00012ZM1325.97168,775.90669c1.98999,0,3.53003-.25,4.62-.75,1.08002-.5,1.83002-1.20001,2.23999-2.10999.40997-.90002.62-1.95001.62-3.15002v-12.21002c0-1.20001-.21002-2.23999-.62-3.14001-.40997-.89001-1.15002-1.58002-2.21997-2.07001-1.07001-.48999-2.60999-.72998-4.64001-.72998s-3.53003.23999-4.62.72998-1.83002,1.17999-2.23999,2.07001-.62,1.94-.62,3.14001v12.21002c0,1.20001.21002,2.25.62,3.15002s1.15997,1.60999,2.23999,2.10999,2.62.75,4.62.75Z"/>
    <path class="cls-4" d="M1343.3617,777.01667v-26.45001h10.10999c2.47998,0,4.38.28998,5.70001.87s2.23999,1.35999,2.72998,2.34998c.5.98999.75,2.09998.75,3.32001,0,.97998-.15997,1.91998-.48999,2.81s-.92999,1.65002-1.81,2.27002-2.15997,1.02002-3.84003,1.19l6.71002,13.65002h-2.78998l-6.5-13.33002h-7.78998v13.33002h-2.78998l.00995-.01001ZM1346.14167,762.31666h7.21997c1.78998,0,3.15002-.21002,4.08002-.64001.92999-.41998,1.57001-1.03003,1.92999-1.81s.53998-1.71002.53998-2.78003c0-1.67999-.44-2.95001-1.32001-3.82001s-2.64001-1.31-5.28998-1.31h-7.16998v10.34998l.01001.01007Z"/>
    <path class="cls-4" d="M1367.5517,777.01667l8.77002-26.45001h3.25l8.82001,26.45001h-2.84003l-2.16998-7.32001h-10.83002l-2.21997,7.32001h-2.78998.00995ZM1372.97168,768.39668h10.06l-5.06-15.67999-5,15.67999ZM1377.3017,748.99665l3.29999-6.34003h2.78998l-4.64001,6.34003h-1.44995Z"/>
    <path class="cls-4" d="M1404.07166,777.01667v-26.45001h2.21997l14.19,22.34003v-22.34003h2.47998v26.45001h-2.21997l-14.19-22.37v22.37h-2.47998Z"/>
    <path class="cls-4" d="M1430.8017,777.01667v-26.45001h14.44v1.44h-11.60999v10.60999h9.53998v1.37h-9.53998v11.63h11.76001v1.40002h-14.59998.00995Z"/>
    <path class="cls-4" d="M1451.33167,777.01667v-26.45001h9.79999c2.51001,0,4.46997.29999,5.88.90002,1.40997.59998,2.40002,1.40997,2.96997,2.42999.57001,1.02002.84998,2.19.84998,3.48999,0,1.17999-.28003,2.29999-.84998,3.35999-.57001,1.07001-1.56,1.94-2.96997,2.60999s-3.34998,1.01001-5.83002,1.01001h-7.07001v12.64001h-2.78998l.01001.01001ZM1454.1117,763.00666h6.45001c1.67999,0,3.07001-.17999,4.15002-.56,1.08002-.37,1.89001-.96002,2.41998-1.78003s.79999-1.90997.79999-3.28003-.23999-2.52002-.71997-3.31-1.26001-1.34998-2.32001-1.66998c-1.07001-.32001-2.48999-.46997-4.28003-.46997h-6.5v11.07001Z"/>
    <path class="cls-4" d="M1485.99167,777.37666c-2.72,0-4.82001-.34003-6.32001-1.03003s-2.54001-1.62-3.12-2.81c-.59-1.19-.88-2.53003-.88-4.03003v-11.56c0-1.5.31-2.83002.92999-3.97998.62-1.15002,1.67999-2.06,3.17001-2.71002s3.57001-.97998,6.22-.97998,4.72.33002,6.22.97998c1.5.65002,2.54999,1.56,3.17001,2.71002.62,1.15002.92999,2.47998.92999,3.97998v11.59003c0,1.5-.29001,2.84003-.88,4.02002-.57999,1.17999-1.62,2.10999-3.12,2.78998s-3.60001,1.03003-6.32001,1.03003ZM1485.99167,775.90669c1.98999,0,3.53-.25,4.62-.75,1.07999-.5,1.82999-1.20001,2.23999-2.10999.41-.90002.62-1.95001.62-3.15002v-12.21002c0-1.20001-.20999-2.23999-.62-3.14001-.41-.89001-1.14999-1.58002-2.22-2.07001s-2.60999-.72998-4.64001-.72998-3.53.23999-4.62.72998-1.82999,1.17999-2.23999,2.07001-.62,1.94-.62,3.14001v12.21002c0,1.20001.20999,2.25.62,3.15002s1.16,1.60999,2.23999,2.10999,2.62.75,4.62.75h.00003Z"/>
    <path class="cls-4" d="M1503.38169,777.01667v-26.45001h9.13c2.79001,0,4.95001.34003,6.5,1.01001,1.54999.67999,2.63,1.59003,3.25,2.73999.62,1.15002.92999,2.44.92999,3.84998v10.96997c0,1.5-.31,2.84998-.92999,4.03003-.62,1.19-1.67999,2.12-3.17001,2.81s-3.60001,1.03003-6.32001,1.03003h-9.39001l.00003.01001ZM1506.16168,775.6067h6.45001c2.26999,0,3.95001-.29999,5.06-.91998,1.10001-.60999,1.82001-1.41998,2.17001-2.42999.34-1.01001.51999-2.12.51999-3.32001v-10.65002c0-1.28998-.20999-2.40002-.62-3.34998s-1.19-1.67999-2.32001-2.19-2.76999-.77002-4.89999-.77002h-6.34v23.60999l-.02002.02002Z"/>
    <path class="cls-4" d="M1530.25168,777.01667v-26.45001h10.10999c2.48001,0,4.38.28998,5.70001.87s2.23999,1.35999,2.73001,2.34998c.5.98999.75,2.09998.75,3.32001,0,.97998-.16,1.91998-.48999,2.81s-.92999,1.65002-1.81,2.27002-2.16,1.02002-3.84,1.19l6.70999,13.65002h-2.79001l-6.5-13.33002h-7.79001v13.33002h-2.79001l.01001-.01001ZM1533.04169,762.31666h7.22c1.79001,0,3.14999-.21002,4.07999-.64001.92999-.41998,1.57001-1.03003,1.92999-1.81s.54001-1.71002.54001-2.78003c0-1.67999-.44-2.95001-1.32001-3.82001s-2.64001-1.31-5.29001-1.31h-7.17001v10.34998l.01004.01007Z"/>
    <path class="cls-4" d="M1556.6117,777.01667v-26.45001h14.44v1.44h-11.60999v10.60999h9.54001v1.37h-9.54001v11.63h11.76001v1.40002h-14.60001.00998Z"/>
    <path class="cls-4" d="M1574.87168,777.01667v-1.40002l15.01001-23.65002h-13.67001v-1.40002h16.70999v1.10999l-15.17001,23.94h15.22v1.40002h-18.11002l.01004.00006Z"/>
    <path class="cls-4" d="M1595.82169,777.01667l8.76999-26.45001h3.25l8.82001,26.45001h-2.84l-2.17001-7.32001h-10.82999l-2.22,7.32001h-2.79001.01001ZM1601.23169,768.39668h10.06l-5.06-15.67999-5,15.67999ZM1605.57169,748.99665l3.29999-6.34003h2.79001l-4.64001,6.34003h-1.44998Z"/>
    <path class="cls-4" d="M1627.70169,777.01667l-10.10999-26.45001h2.79001l8.67001,23.34998,8.10001-23.34998h2.73001l-9.54001,26.45001h-2.64005Z"/>
    <path class="cls-4" d="M1640.8017,777.01667l8.76999-26.45001h3.25l8.82001,26.45001h-2.84l-2.17001-7.32001h-10.82999l-2.22,7.32001h-2.79001.01001ZM1646.22168,768.39668h10.06l-5.06-15.67999-5,15.67999Z"/>
    <path class="cls-4" d="M1677.32169,777.01667v-26.45001h9.79999c2.51001,0,4.47.29999,5.88.90002,1.41.59998,2.39999,1.40997,2.97,2.42999s.85001,2.19.85001,3.48999c0,1.17999-.28,2.29999-.85001,3.35999-.57001,1.07001-1.56,1.94-2.97,2.60999s-3.35001,1.01001-5.82999,1.01001h-7.07001v12.64001h-2.79001l.01001.01001ZM1680.1117,763.00666h6.45001c1.67999,0,3.07001-.17999,4.14999-.56,1.07999-.37,1.89001-.96002,2.42001-1.78003s.79999-1.90997.79999-3.28003-.23999-2.52002-.72-3.31-1.26001-1.34998-2.32001-1.66998c-1.07001-.32001-2.48999-.46997-4.28-.46997h-6.5v11.07001Z"/>
    <path class="cls-4" d="M1702.5517,777.01667v-26.45001h10.10999c2.48001,0,4.38.28998,5.70001.87s2.23999,1.35999,2.73001,2.34998c.5.98999.75,2.09998.75,3.32001,0,.97998-.16,1.91998-.48999,2.81s-.92999,1.65002-1.81,2.27002-2.16,1.02002-3.84,1.19l6.70999,13.65002h-2.79001l-6.5-13.33002h-7.79001v13.33002h-2.79001l.01001-.01001ZM1705.3317,762.31666h7.22c1.79001,0,3.14999-.21002,4.07999-.64001.92999-.41998,1.57001-1.03003,1.92999-1.81s.54001-1.71002.54001-2.78003c0-1.67999-.44-2.95001-1.32001-3.82001s-2.64001-1.31-5.29001-1.31h-7.17001v10.34998l.01004.01007Z"/>
    <path class="cls-4" d="M1738.40169,777.37666c-2.72,0-4.82001-.34003-6.32001-1.03003s-2.53999-1.62-3.12-2.81c-.59-1.19-.88-2.53003-.88-4.03003v-11.56c0-1.5.31-2.83002.92999-3.97998.62-1.15002,1.67999-2.06,3.17-2.71002s3.57001-.97998,6.22-.97998,4.72.33002,6.22.97998c1.5.65002,2.55,1.56,3.17,2.71002s.92999,2.47998.92999,3.97998v11.59003c0,1.5-.28999,2.84003-.88,4.02002-.58,1.17999-1.62,2.10999-3.12,2.78998s-3.60001,1.03003-6.32001,1.03003h.00003ZM1738.40169,775.90669c1.99001,0,3.53-.25,4.62-.75,1.08-.5,1.83-1.20001,2.24001-2.10999.41-.90002.62-1.95001.62-3.15002v-12.21002c0-1.20001-.21001-2.23999-.62-3.14001-.41-.89001-1.14999-1.58002-2.22-2.07001s-2.61-.72998-4.64-.72998-3.53.23999-4.62.72998-1.83,1.17999-2.24001,2.07001-.62,1.94-.62,3.14001v12.21002c0,1.20001.21001,2.25.62,3.15002.41.90002,1.16,1.60999,2.24001,2.10999s2.62.75,4.62.75Z"/>
    <path class="cls-4" d="M1752.33168,778.4867v-1.40002c1.55,0,2.75999-.07001,3.64-.20001s1.53-.37,1.96001-.71997c.42999-.34998.7-.84998.83-1.5.12-.65002.17999-1.5.17999-2.54999v-21.54999h2.78v21.75c0,1.41998-.17,2.58002-.52,3.5-.34.90997-1.08,1.59003-2.22,2.02002s-2.87.65002-5.21001.65002h-1.44l.00002-.00006Z"/>
    <path class="cls-4" d="M1769.61168,777.01667v-26.45001h14.44v1.44h-11.61v10.60999h9.53999v1.37h-9.53999v11.63h11.75999v1.40002h-14.60001.01001Z"/>
    <path class="cls-4" d="M1790.09168,777.01667v-26.45001h2.84v14.85999l12.12-14.85999h2.78999l-8.81999,11.20001,10.94,15.25h-2.78999l-9.85001-13.71997-4.38,5.06v8.65997h-2.84999Z"/>
    <path class="cls-4" d="M1819.60169,777.01667v-25.02002h-8.36v-1.44h19.28999v1.44h-8.14999v25.02002h-2.78Z"/>
    <path class="cls-4" d="M1842.45168,777.01667v-8.46002l-9.64999-17.98999h2.89l8.2,15.87,7.78999-15.87h2.89l-9.34,17.98999v8.46002h-2.78999.00999Z"/>
  </g>
  <g>
    <polygon class="cls-12" points="407.47174 477.78669 409.53168 399.93669 309.9317 318.96668 114.20172 318.96668 115.36164 691.25666 218.01166 691.25666 218.03168 569.02668 174.86164 528.78669 219.24164 488.63667 221.13166 409.46668 176.40167 370.00669 287.02167 370.00669 347.33173 419.72669 349.07172 458.32667 303.84174 499.54667 229.19171 497.9167 195.78168 528.8567 239.44171 568.36671 330.84174 690.58668 406.58173 717.58668 407.36164 643.55671 330.92169 545.00666 407.47174 477.78669"/>
    <polygon class="cls-1" points="332.59174 686.11671 241.76166 564.6667 202.01166 529.40669 229.92169 503.08668 305.78168 505.30668 352.87165 460.68669 350.90167 417.02668 287.64167 364.86668 162.31171 364.86668 215.64167 411.9167 213.87165 486.11668 166.78168 528.72669 212.60163 571.44667 214.07172 685.51667 119.03168 686.11671 117.90167 324.10667 307.59174 324.10667 404.03168 402.50669 402.11164 475.20668 323.44171 544.2967 401.94171 645.49665 401.47174 710.55671 332.59174 686.11671"/>
    <polygon class="cls-2" points="327.36164 695.06666 235.37165 572.05671 187.6817 528.90669 226.73163 492.73667 301.40167 494.37669 343.54169 455.97669 342.02167 422.43669 284.66168 375.14668 188.75165 375.14668 224.87165 407.01667 222.87165 491.14668 181.21173 528.84669 221.72174 566.6067 221.69171 696.39668 109.95172 696.39668 108.76166 313.82667 310.53168 313.82667 413.29169 397.36668 411.09174 480.35667 336.65167 545.71668 411.04169 641.61671 411.28168 723.99665 327.36164 695.06666"/>
    <polygon class="cls-11" points="407.47174 477.78669 409.53168 399.93669 310.13166 318.72669 113.33173 318.96668 114.49164 691.25666 218.09174 691.25666 217.16168 569.02668 173.99164 528.78669 218.37165 488.63667 220.26166 409.46668 175.53168 370.00669 287.02167 370.00669 347.33173 419.72669 348.99164 458.18669 302.97174 499.54667 228.32172 497.9167 194.62165 529.11671 238.57172 568.36671 329.97174 690.58668 406.58173 717.56666 406.49164 643.55671 330.0517 545.00666 407.47174 477.78669"/>
    <polygon class="cls-10" points="407.67169 477.53669 409.74164 399.68669 310.13166 318.72669 114.41168 318.72669 115.57172 691.00666 218.17169 691.34669 218.00165 569.01667 175.07172 528.5467 219.45172 488.38667 221.33173 409.21668 176.60163 369.75669 287.23163 369.75669 347.54169 419.48667 349.15167 458.26667 303.91168 499.48667 228.40167 497.85667 194.69171 529.05671 239.64167 568.11671 331.0517 690.34669 406.86164 717.89668 407.56171 643.31666 331.12165 544.76667 407.67169 477.53669"/>
    <polygon class="cls-9" points="221.71173 696.42671 169.78168 622.1667 109.97174 696.42671 221.71173 696.42671"/>
    <polygon class="cls-7" points="187.6817 528.90669 188.46173 528.92671 270.81171 531.84669 411.28168 723.9867 327.36164 695.05671 235.37165 572.05671 187.6817 528.90669"/>
    <polyline class="cls-8" points="108.76166 313.82667 169.49164 366.00669 169.76166 622.13667 109.95172 696.39668 108.76166 313.82667"/>
    <polygon class="cls-6" points="108.76166 313.82667 169.20172 365.61668 287.64167 364.86668 350.90167 417.02668 352.87165 460.68669 305.78168 505.30668 229.92169 503.10667 202.00165 529.42671 270.69171 531.80671 411.28168 723.9867 410.75165 641.72669 337.39167 545.86671 411.62165 480.11668 413.36164 397.67668 310.53168 313.82667 108.76166 313.82667"/>
    <polygon class="cls-5" points="108.76166 313.82667 169.29169 366.00669 287.03168 364.84669 350.10163 417.02668 352.06171 460.68669 305.27167 505.48667 229.66168 503.29667 202.07172 529.6067 269.11164 532.20668 411.28168 723.99665 408.6817 642.1067 335.57172 546.26667 409.5517 480.52668 411.28168 398.09669 308.70172 314.35667 108.76166 313.82667"/>
  </g>
  <path class="cls-3" d="M439.12165,690.43666l.06995-238.04999,91.71997.01999v45.98999l-45.08997-.01001v46.38998l43.23999.01001v44.77002l-43.27002-.01001-.02002,54.51001h48.06995l-.01001,46.40002-94.70996-.02002h.00012Z"/>
  <path class="cls-3" d="M549.36164,690.45668v-43.27997l52.56006-150.92999h-47.42004l.01001-43.83002,95.76001.01999v41.66l-53.47998,152.54999h51.19995l-.01001,43.83002-98.62-.02002Z"/>
  <path class="cls-3" d="M669.11164,690.4867l.06995-238.04999h44.29004l-.06995,238.06h-44.29004v-.01001Z"/>
  <path class="cls-3" d="M759.15167,690.50666l-28.19995-238.19h43.64001l16.75,162.04999,15.03003-162.03h43.64001l-28.34998,238.19003-62.53003-.02002h.0199Z"/>
  <path class="cls-3" d="M857.92169,690.53669l22.21997-238.03998,77.78003.01999,21.67999,238.05002h-43.37994l-3.25-38.41998h-27.62l-2.88,38.40002h-44.56006l.01001-.01007ZM908.63166,614.12666h20.84998l-9.98999-121.04999h-2.07996l-8.77002,121.04999h-.01001Z"/>
  <path class="cls-3" d="M1000.08167,690.56666l.07001-238.04999,70.34998.01999c11.72998,0,20.58002,2.78,26.57001,8.32001,5.98999,5.54999,10.01001,13.29999,12.03998,23.26999,2.03998,9.97,3.06,21.67001,3.04999,35.09998,0,12.97998-1.59003,23.34998-4.77002,31.10999-3.16998,7.75-9.15002,13.12-17.91998,16.09003,7.21002,1.53998,12.26001,5.26001,15.16998,11.15997,2.90997,5.90997,4.35999,13.54999,4.35999,22.92999l-.03003,90.08002h-45.21002l.03003-93.20001c0-6.94-1.37-11.25-4.09998-12.91998-2.73999-1.66998-7.14001-2.5-13.21997-2.5l-.03003,108.60999h-46.38l.02008-.01996ZM1046.77167,540.71668h11.07001c6.34003,0,9.51001-7.15997,9.52002-21.5,0-9.29001-.69-15.37-2.08002-18.26001-1.39001-2.88-3.98999-4.32999-7.82001-4.32999h-10.67999l-.01001,44.09Z"/>
  <path class="cls-3" d="M1131.5517,690.6067l.07001-238.04999h44.28998l-.07001,238.06h-44.28998v-.01001Z"/>
  <path class="cls-3" d="M1253.52167,692.7967c-19.10999,0-33.17999-5.58002-42.21002-16.71002-9.03003-11.14001-13.53998-27.53003-13.53003-49.16998l.04999-174.34h44.56l-.04999,172.45999c0,3.96997.21002,7.78003.65002,11.42999.42999,3.65002,1.42999,6.65002,2.98999,8.98999,1.56,2.34998,4.08002,3.52002,7.56,3.52002,3.56,0,6.12-1.15002,7.69-3.45001,1.56-2.29999,2.53998-5.29999,2.92999-8.98999.39001-3.70001.59003-7.53003.59003-11.5l.04999-172.45001h44.56l-.04999,174.35004c0,21.64001-4.53003,38.03003-13.56,49.15997-9.03998,11.14001-23.10999,16.70001-42.21997,16.69l-.01001.01001Z"/>
  <path class="cls-3" d="M1333.27167,690.65669l.07001-238.04999,69.83002.01999,19.23999,145.12997,19.20001-145.12,70.48001.01999-.07001,238.05002h-41.94998l.04999-171.51001-26.37,171.5h-41.16998l-27.83002-171.52002-.04999,171.5h-41.42999l-.00006-.01996Z"/>
  <path class="cls-3" d="M1535.74167,690.56666v-40.31l46.64999.01001v40.31l-46.64999-.01001Z"/>
  <path class="cls-3" d="M1660.57169,692.89668c-20.92999,0-36.01999-5.41998-45.26999-16.23999s-13.87-28.04999-13.85999-51.66998v-23.26001l45.34.01001v29.76001c-.01001,5.5.79001,9.81,2.39999,12.91998s4.41,4.66998,8.39999,4.66998c4.17001,0,7.06-1.26001,8.66-3.78998,1.60999-2.52002,2.41-6.66998,2.41-12.44,0-7.29999-.69-13.40997-2.07999-18.33002-1.39001-4.90997-3.79999-9.59998-7.23001-14.07001-3.42999-4.46002-8.19-9.66998-14.26001-15.63l-20.57999-20.28998c-15.37-15.06-23.04999-32.28003-23.04001-51.66998,0-20.29001,4.54999-35.75,13.63-46.39001,9.07999-10.64001,22.22-15.95001,39.41-15.95001,21.01999,0,35.92999,5.82001,44.75,17.45999,8.81,11.63,13.20999,29.31,13.20999,53.01999h-46.63998v-16.38c0-3.25-.89001-5.76999-2.67001-7.57001-1.78-1.79999-4.19-2.70999-7.23001-2.70999-3.64999,0-6.32001,1.06-8.01001,3.17999s-2.54001,4.85001-2.54001,8.17999c0,3.34.85999,6.95001,2.60001,10.81998,1.73999,3.88,5.16,8.34003,10.29001,13.39001l26.44,26.38c5.29999,5.22998,10.16,10.76001,14.59,16.57001,4.42999,5.82001,7.98999,12.58002,10.67999,20.28998,2.69,7.71002,4.03,17.10999,4.03,28.20001,0,22.35999-3.98999,39.88-11.94,52.53998-7.95001,12.66998-21.79001,19-41.5,18.98999l.01001.01007Z"/>
  <path class="cls-3" d="M1735.63169,690.75666l.07001-238.04999h45.34l-.03,95.35999,21.39999-95.35001h46.12l-25.7,109.01999,30.97,129.03998h-47.55l-24.98-115.25-.03999,115.23999h-45.60001v-.00995Z"/>
</svg>